<mxfile host="app.diagrams.net" modified="2023-06-16T06:08:02.662Z" agent="Mozilla/5.0 (Windows NT 10.0; Win64; x64) AppleWebKit/537.36 (KHTML, like Gecko) Chrome/113.0.0.0 Safari/537.36" version="21.4.0" etag="tn0Jj71ASfNljEbs8m2F" type="github">
  <diagram name="第 1 页" id="2rvSoG_QY_xW0W9yuY6B">
    <mxGraphModel>
      <root>
        <mxCell id="0" />
        <mxCell id="1" parent="0" />
      </root>
    </mxGraphModel>
  </diagram>
</mxfile>
